<svg xmlns="http://www.w3.org/2000/svg" width="24" height="24" fill="black">
<path d="M12 .5a12 12 0 00-3.79 23.4c.6.11.82-.26.82-.58v-2.24c-3.34.73-4.04-1.61-4.04-1.61a3.18 3.18 0 00-1.34-1.76c-1.09-.75.08-.74.08-.74a2.52 2.52 0 011.84 1.24 2.56 2.56 0 003.49 1 2.57 2.57 0 01.76-1.61c-2.66-.3-5.47-1.34-5.47-5.95a4.66 4.66 0 011.24-3.24 4.3 4.3 0 01.12-3.2s1-.32 3.3 1.23a11.38 11.38 0 016 0c2.31-1.55 3.3-1.23 3.3-1.23a4.3 4.3 0 01.12 3.2 4.66 4.66 0 011.24 3.24c0 4.63-2.82 5.64-5.5 5.94a2.88 2.88 0 01.82 2.23v3.29c0 .33.22.7.82.58A12 12 0 0012 .5z"></path>
</svg>
